<svg t="1652422292739" class="icon" viewBox="0 0 1024 1024" version="1.1" xmlns="http://www.w3.org/2000/svg" p-id="3636" width="200" height="200"><path d="M492.220587 889.856l-158.122667 83.285333A127.744 127.744 0 0 1 148.49792 838.144l30.208-176.298667a42.666667 42.666667 0 0 0-12.288-37.802666L38.588587 499.2a128.170667 128.170667 0 0 1 70.826666-218.368l176.810667-25.685333a42.666667 42.666667 0 0 0 32.085333-23.381334l79.104-160.426666a127.744 127.744 0 0 1 229.205334 0l79.104 160.426666a42.666667 42.666667 0 0 0 32.085333 23.381334l176.725333 25.685333a128 128 0 0 1 70.826667 218.368l-127.914667 124.842667a42.666667 42.666667 0 0 0-12.202666 37.802666l30.208 176.298667a128 128 0 0 1-185.514667 134.997333l-158.122667-83.285333a42.581333 42.581333 0 0 0-39.594666 0z m-39.68-75.52c37.205333-19.626667 81.749333-19.626667 118.954666 0l158.122667 83.2a42.581333 42.581333 0 0 0 61.781333-44.970667l-30.122666-176.298666a128.085333 128.085333 0 0 1 36.693333-113.322667l128-124.842667a42.666667 42.666667 0 0 0-23.637333-72.789333L725.52192 339.626667a127.829333 127.829333 0 0 1-96.256-69.973334l-79.018667-160.426666a42.666667 42.666667 0 0 0-76.458666 0l-79.018667 160.426666c-18.688 37.717333-54.613333 63.914667-96.256 69.973334l-176.810667 25.685333a42.581333 42.581333 0 0 0-23.637333 72.789333l128 124.842667c30.122667 29.44 43.861333 71.765333 36.693333 113.322667l-30.208 176.298666a42.666667 42.666667 0 0 0 61.866667 44.970667l158.122667-83.2z" p-id="3637"></path></svg>
