<svg t="1652264186060" class="icon" viewBox="0 0 1024 1024" version="1.1" xmlns="http://www.w3.org/2000/svg" p-id="3324" width="200" height="200"><path d="M64 160m32 0l832 0q32 0 32 32l0 0q0 32-32 32l-832 0q-32 0-32-32l0 0q0-32 32-32Z" p-id="3325"></path><path d="M362.666667 373.333333m32 0l533.333333 0q32 0 32 32l0 0q0 32-32 32l-533.333333 0q-32 0-32-32l0 0q0-32 32-32Z" p-id="3326"></path><path d="M362.666667 586.666667m32 0l533.333333 0q32 0 32 32l0 0q0 32-32 32l-533.333333 0q-32 0-32-32l0 0q0-32 32-32Z" p-id="3327"></path><path d="M64 800m32 0l832 0q32 0 32 32l0 0q0 32-32 32l-832 0q-32 0-32-32l0 0q0-32 32-32Z" p-id="3328"></path><path d="M258.88 527.808l-145.664 98.858667a32 32 0 0 1-49.984-26.474667v-197.717333a32 32 0 0 1 49.984-26.453334l145.664 98.837334a32 32 0 0 1 0 52.949333z" p-id="3329"></path></svg>
