<svg t="1652340317507" class="icon" viewBox="0 0 1024 1024" version="1.1" xmlns="http://www.w3.org/2000/svg" p-id="10526" width="200" height="200"><path d="M731.6 638.1c-63.7 0-119.7-28.3-131.2-34.6-10.3-4.1-73.6-28.5-124.4-28.5-46 0-106.4 21-125.8 29.1-9.7 4.1-20.9 3-29.6-2.9-8.8-5.9-14-15.7-14-26.2V165c0-12.8 7.8-24.4 19.7-29.2 3.4-1.4 84.1-33.9 153.2-33.9 69.6 0 144.3 32.9 147.5 34.2 1.2 0.5 2.3 1.1 3.4 1.8 0.4 0.2 46.3 27.1 98.8 27.1 52.2 0 96.8-26.7 97.2-26.9 9.8-5.9 21.9-6.1 31.9-0.5 9.9 5.6 16.1 16.1 16.1 27.5v410c0 10.7-5.4 20.6-14.4 26.5-2.4 1.5-57.4 36.5-128.4 36.5zM476 512c67.9 0 146.8 32.6 150.1 34 1.2 0.5 2.4 1.1 3.5 1.7 0.4 0.3 49.1 27.4 102 27.4 33.5 0 62.8-11 79.5-18.9V213.7c-22.4 7.7-51 14.5-82.1 14.5-63.8 0-117.8-28.4-129.1-34.8-9.7-4.1-69-28.3-120.6-28.3-38.5 0-84.2 13.4-109.7 22.1v343.5c29.5-9.1 69.6-18.7 106.4-18.7z m82.8 410H211.9V133.5c0-17.4 14.1-31.5 31.5-31.5s31.5 14.1 31.5 31.5v725.4h283.9c17.4 0 31.5 14.1 31.5 31.5 0.1 17.5-14 31.6-31.5 31.6z m-315.4 0h-62.1c-17.4 0-31.5-14.1-31.5-31.5s14.1-31.5 31.5-31.5h62.1c17.4 0 31.5 14.1 31.5 31.5 0.1 17.4-14.1 31.5-31.5 31.5z m0 0" p-id="10527"></path></svg>
