<svg t="1654153192749" class="icon" viewBox="0 0 1024 1024" version="1.1" xmlns="http://www.w3.org/2000/svg" p-id="2204" width="200" height="200"><path d="M402.3 532c5.3 128.2 62.4 229.3 94.8 276.8 3.7 5.4 7.1 10.1 10 14.1 1.4 0 2.7 0.2 4.2 0.2 1.1 0 2.1-0.1 3.2-0.2 5-6.7 11.3-15.6 18.3-26.4 33-51.4 81.8-146.4 86.7-264.4H402.3zM457 208.6c0-0.1 0.1-0.1 0.1-0.2C318.4 233 211.5 350.1 202.5 493.5h161c5-126.2 57.6-228.9 93.5-284.9zM583.3 788.1c-6.3 11.1-12.5 21.2-18.2 30C704.3 793.6 811.5 676 820.2 532H658.3c-4 108.5-41.7 197.6-75 256.1zM619.5 493.5c-5.6-125.7-63-228.2-95.3-276.4-3.5-5.2-6.7-9.7-9.4-13.5l-0.1-0.1c-1.1 0-2.2-0.2-3.4-0.2-1.4 0-2.8 0.2-4.2 0.2-28.9 40-98.5 150.8-104.8 290h217.2z" p-id="2205"></path><path d="M511.3 102.6c-226.8 0-410.6 183.8-410.6 410.6s183.8 410.6 410.6 410.6S921.9 740 921.9 513.2 738.1 102.6 511.3 102.6z m0 764.4c-137.6 0-256.8-79.1-315.3-194-7.5-14.7 3.4-32.2 19.9-32.2 8.4 0 15.8 4.9 19.6 12.4 43.2 85 124.3 147.4 221.1 164.8-36-55.3-88.5-157-93.3-285.9H176.7s-7.4 0.1-13.5-5.6c-5.8-5.5-5.8-12.8-5.8-13.2 0-195.1 158.7-353.9 353.9-353.9 137.2 0 256.2 78.7 314.9 193.2 7.5 14.7-3.3 32.3-19.8 32.3-8.4 0-15.8-4.9-19.6-12.3-43.5-84.9-125-147.3-222.1-164.2 1.2 1.8 2.4 3.7 3.6 5.6l0.9 1.5c0.2 0.4 0.5 0.8 0.7 1.2 35.5 57.5 83.6 156.5 88.5 277h187.5s7.6-0.8 14.1 5.9c4.4 4.5 5.3 9.8 5.3 13.7 0.6 195-158.9 353.7-354 353.7z" p-id="2206"></path></svg>
