<svg t="1652061976528" class="icon" viewBox="0 0 1024 1024" version="1.1" xmlns="http://www.w3.org/2000/svg" p-id="7673" width="200" height="200"><path d="M512.090316 72.252602c55.995766 0 108.559534 21.856412 148.117834 61.23408 39.5583 39.5583 61.23408 92.122067 61.23408 148.117834s-21.856412 108.559534-61.23408 148.117834c-39.5583 39.5583-92.122067 61.23408-148.117834 61.23408s-108.559534-21.856412-148.117834-61.23408c-39.5583-39.5583-61.23408-92.122067-61.23408-148.117834s21.856412-108.559534 61.23408-148.117834c39.5583-39.377668 92.122067-61.23408 148.117834-61.23408m0-72.252602c-155.523726 0-281.604516 126.08079-281.604516 281.604516s126.08079 281.604516 281.604516 281.604516S793.694832 437.128241 793.694832 281.604516 667.614041 0 512.090316 0zM835.601341 719.635915c63.943553 0 116.146058 52.021873 116.146057 116.146057 0 63.943553-52.021873 116.146058-116.146057 116.146058H188.398659C124.455107 951.92803 72.252602 899.906156 72.252602 835.781972c0-63.943553 52.021873-116.146058 116.146057-116.146057h647.202682m0-72.252602H188.398659C84.354913 647.383313 0 731.557594 0 835.601341s84.354913 188.398659 188.398659 188.398659h647.383313c104.043747 0 188.398659-84.354913 188.39866-188.398659-0.180632-104.043747-84.535544-188.218028-188.579291-188.218028z" p-id="7674"></path></svg>
