<svg t="1652067396723" class="icon" viewBox="0 0 1024 1024" version="1.1" xmlns="http://www.w3.org/2000/svg" p-id="23284" width="200" height="200"><path d="M256 448m48 0l416 0q48 0 48 48l0 0q0 48-48 48l-416 0q-48 0-48-48l0 0q0-48 48-48Z" p-id="23285"></path><path d="M256 672m48 0l416 0q48 0 48 48l0 0q0 48-48 48l-416 0q-48 0-48-48l0 0q0-48 48-48Z" p-id="23286"></path><path d="M668.8 256l-64-168.32A128 128 0 0 0 483.84 0H128a128 128 0 0 0-128 128v220.8h93.44v-192a64 64 0 0 1 64-64h279.04a64 64 0 0 1 60.8 44.8L546.56 256l12.16 28.8h120.96z" p-id="23287"></path><path d="M896 192H520.96l39.68 92.8h305.92a64 64 0 0 1 64 64v517.76a64 64 0 0 1-64 64H157.44a64 64 0 0 1-64-64V256H0v640a128 128 0 0 0 128 128h768a128 128 0 0 0 128-128V320a128 128 0 0 0-128-128z" p-id="23288"></path></svg>
