<svg t="1652062440765" class="icon" viewBox="0 0 1024 1024" version="1.1" xmlns="http://www.w3.org/2000/svg" p-id="15866" width="200" height="200"><path d="M927.68 698.912c0-0.576 0.32-1.056 0.32-1.664v-564.32C928 77.28 883.552 32 828.928 32H195.04C140.448 32 96 77.28 96 132.928v758.144C96 946.72 140.448 992 195.04 992h480.032a31.872 31.872 0 0 0 20.96-7.84l153.856-133.632a32 32 0 1 0-41.92-48.32L704 892.512V772.96c0-20.384 15.712-36.96 35.072-36.96h157.632a32 32 0 0 0 32-32c-0.032-1.792-0.768-3.36-1.024-5.088zM640 772.928V928H195.04c-19.328 0-35.04-16.576-35.04-36.928V132.928C160 112.576 175.712 96 195.04 96h633.888C848.288 96 864 112.576 864 132.928V672H739.072C684.448 672 640 717.28 640 772.928z" p-id="15867"></path><path d="M448 752a48 48 0 1 0 96 0 48 48 0 1 0-96 0zM490.432 192a181.568 181.568 0 0 0-181.568 181.568 32 32 0 0 0 64 0 117.6 117.6 0 0 1 235.136 0c0 64.928-52.64 125.472-117.568 125.472a32 32 0 0 0-32 32v62.816a32 32 0 0 0 64 0v-33.632C607.456 545.088 672 462.912 672 373.568A181.568 181.568 0 0 0 490.432 192z" p-id="15868"></path></svg>
