<svg t="1652340232270" class="icon" viewBox="0 0 1024 1024" version="1.1" xmlns="http://www.w3.org/2000/svg" p-id="9329" width="200" height="200"><path d="M78.992075 64.87966l236.821707 0 0 236.81352L78.992075 301.69318 78.992075 64.87966 78.992075 64.87966zM315.813782 958.655759 78.992075 958.655759l0-236.81352 236.821707 0L315.813782 958.655759 315.813782 958.655759zM193.038528 585.797773l-14.938224 17.306154L62.034868 502.875179l36.727483-42.521442 75.322499 65.052598 140.727115-140.043546 39.635719 39.827077L193.038528 585.797773 193.038528 585.797773zM947.94993 882.387725 401.751037 882.387725l0-84.274382 546.198893 0L947.94993 882.387725 947.94993 882.387725zM947.94993 542.441313 401.751037 542.441313l0-84.268242 546.198893 0L947.94993 542.441313 947.94993 542.441313zM947.94993 225.422076 401.751037 225.422076 401.751037 141.147694l546.198893 0L947.94993 225.422076 947.94993 225.422076zM947.94993 225.422076" p-id="9330"></path></svg>
